<?xml version="1.0" encoding="utf-8"?>
<!DOCTYPE svg PUBLIC "-//W3C//DTD SVG 1.1//EN" "http://www.w3.org/Graphics/SVG/1.1/DTD/svg11.dtd">
<svg xmlns="http://www.w3.org/2000/svg" xmlns:xlink="http://www.w3.org/1999/xlink" version="1.1" height="245" width="180" viewBox="-.2 -236 180 245">
<!-- SVG-cards 2.0.1								--><!-- This set of SVG files is a complete cards game with figures, numbers	--><!--	and backs of cards completely designed in SVG.				--><!--	Copyright (C) 2005 David Bellot						--><!--	This library is free software; you can redistribute it and/or		--><!--	modify it under the terms of the GNU Lesser General Public		--><!--	License as published by the Free Software Foundation; either		--><!--	version 2 of the License, or (at your option) any later version		--><!--	This library is distributed in the hope that it will be useful,		--><!--	but WITHOUT ANY WARRANTY; without even the implied warranty of		--><!--	MERCHANTABILITY or FITNESS FOR A PARTICULAR PURPOSE.  See the GNU	--><!--	Lesser General Public License for more details.				--><!--	You should have received a copy of the GNU Lesser General Public	--><!--	License along with this library; if not, write to the Free Software	--><!--	Foundation, Inc., 59 Temple Place, Suite 330, Boston, MA 02111-1307  USA--><!--	Contact the author David Bellot at david.bellot@free.fr			-->
<defs> 	
  <g
     id="n"
     aria-label="9"
     style="font-style:normal;font-variant:normal;font-weight:bold;font-stretch:normal;font-size:40px;line-height:1.25;font-family:'Bitstream Vera Serif';-inkscape-font-specification:'Bitstream Vera Serif Bold';letter-spacing:0px;word-spacing:0px;fill:#000000;fill-opacity:1;stroke:none">
    <path
       d="m 12.890995,-226.88735 q -1.877605,0 -2.679688,1.60417 -0.783854,1.58594 -0.783854,5.52344 0,3.9375 0.783854,5.54166 0.802083,1.58594 2.679688,1.58594 1.877604,0 2.679687,-1.58594 0.802083,-1.60416 0.802083,-5.54166 0,-3.9375 -0.802083,-5.52344 -0.802083,-1.60417 -2.679687,-1.60417 z m 4.065104,14.49219 q -1.203125,0.96614 -2.679688,1.45833 -1.458333,0.47396 -3.171875,0.47396 -4.1562495,0 -6.5442703,-2.42448 -2.3697916,-2.44271 -2.3697916,-6.72656 0,-4.52083 2.6614583,-6.96354 2.6614582,-2.44271 7.6015626,-2.44271 5.578124,0 8.458333,3.37239 2.880208,3.3724 2.880208,9.88021 0,7.41927 -3.190104,11.21094 -3.190104,3.77344 -9.460937,3.77344 -1.6406253,0 -3.5182294,-0.27344 -1.8776041,-0.27344 -4.0286457,-0.82031 v -4.8125 H 5.799849 q 0.4557292,1.85937 1.7135416,2.82552 1.2760416,0.94791 3.2994794,0.94791 3.208333,0 4.666666,-2.22395 1.458333,-2.24219 1.476563,-7.25521 z"
       style="font-size:37.33333206px"/>
  </g>
 	<g id="base"> 
     <path style="fill:#FFFFFF;stroke:#000000;stroke-width:2.5" d="M 0,0C0,3.78 3.09,6.87 6.87,6.87L159.715,6.87C163.485,6.87 166.575,3.78 166.575,0L166.575,-228.4C166.575,-232.18 163.485,-235.27 159.715,-235.27L6.87,-235.27C3.09,-235.27 0,-232.18 0,-228.4L0,0 z"/>
     </g>
 	<g id="figure" > 	
     <path 	d="M3.35,4.66c0-1.81-1.51-3.28-3.38-3.28s-3.38,1.47-3.38,3.28c0,1.81,1.51,3.28,3.38,3.28S3.35,6.47,3.35,4.66z"/>
     <path d="M7.71-1.55c0-1.81-1.51-3.28-3.38-3.28S0.95-3.36,0.95-1.55c0,1.81,1.51,3.28,3.38,3.28S7.71,0.26,7.71-1.55z"/> 
     <path 	d="M-0.95-1.57c0-0.66-0.2-1.28-0.55-1.8c-0.6-0.89-1.65-1.48-2.83-1.48c-1.87,0-3.38,1.47-3.38,3.28 	c0,1.81,1.51,3.28,3.38,3.28S-0.95,0.24-0.95-1.57z"/>
     <path 	d="M3.94-7.94c-1.67,0-2.55,1.36-3.01,2.72C0.47-3.86,0.43-2.5,0.43-2.5h-0.86c0,0-0.16-5.43-3.5-5.44H3.94z"/>
     <path 	d="M-2.32,2.25c1.9-1.9,1.9-4.75,1.9-4.75l0.85-0.01c0,0,0,2.91,1.85,4.76"/> 
     <path 	d="M-1.94-3.85c1.9,1.9,4.75,1.9,4.75,1.9v0.85c0,0-2.91,0-4.76,1.85"/>
     <path 	d="M1.87-3.86c-1.9,1.9-4.75,1.9-4.75,1.9v0.85c0,0,2.91,0,4.76,1.85"/> 
     </g>
  </defs>
   <g x="0" y="0"> 
    <g> 
        <use xlink:href="#base" x="0" y="0"/>
        <use xlink:href="#n" x="0" y="0"/>
        <use xlink:href="#n" x="160" y="170" transform="rotate(180,163.575,-30.28)"/>
        <use xlink:href="#figure" x="13.65" y="-185.117" transform="rotate(180,13.65,-185.117)"/> 
        <use xlink:href="#figure" x="153.925" y="-44.28"/> 

        <use xlink:href="#figure" x="20" y="-82.7125" transform="scale(2.4) rotate(180,20,-82.7125)"/> 
        <use xlink:href="#figure" x="20" y="-60.1474" transform="scale(2.4) rotate(180,20,-60.1474)"/>
        <use xlink:href="#figure" x="20" y="-37.1641" transform="scale(2.4)"/>
        <use xlink:href="#figure" x="20" y="-14.599" transform="scale(2.4)"/>
        <use xlink:href="#figure" x="50" y="-82.7125" transform="scale(2.4) rotate(180,50,-82.7125)"/>
        <use xlink:href="#figure" x="50" y="-60.1474" transform="scale(2.4) rotate(180,50,-60.1474)"/> 
        <use xlink:href="#figure" x="50" y="-37.1641" transform="scale(2.4)"/> 
        <use xlink:href="#figure" x="50" y="-14.599" transform="scale(2.4)"/> 
        <use xlink:href="#figure" x="35" y="-71.4299" transform="scale(2.4) rotate(180,35,-71.4299)"/>
    </g>  
 </g>
 </svg> 
