<?xml version="1.0" encoding="utf-8"?>
<!DOCTYPE svg PUBLIC "-//W3C//DTD SVG 1.1//EN" "http://www.w3.org/Graphics/SVG/1.1/DTD/svg11.dtd">
<svg xmlns="http://www.w3.org/2000/svg" xmlns:xlink="http://www.w3.org/1999/xlink" version="1.1" height="245" width="180" viewBox="-.2 -236 180 245">
<!-- SVG-cards 2.0.1								--><!-- This set of SVG files is a complete cards game with figures, numbers	--><!--	and backs of cards completely designed in SVG.				--><!--	Copyright (C) 2005 David Bellot						--><!--	This library is free software; you can redistribute it and/or		--><!--	modify it under the terms of the GNU Lesser General Public		--><!--	License as published by the Free Software Foundation; either		--><!--	version 2 of the License, or (at your option) any later version		--><!--	This library is distributed in the hope that it will be useful,		--><!--	but WITHOUT ANY WARRANTY; without even the implied warranty of		--><!--	MERCHANTABILITY or FITNESS FOR A PARTICULAR PURPOSE.  See the GNU	--><!--	Lesser General Public License for more details.				--><!--	You should have received a copy of the GNU Lesser General Public	--><!--	License along with this library; if not, write to the Free Software	--><!--	Foundation, Inc., 59 Temple Place, Suite 330, Boston, MA 02111-1307  USA--><!--	Contact the author David Bellot at david.bellot@free.fr			-->
<defs> 	
  <g
     id="n"
     aria-label="10"
     style="font-style:normal;font-variant:normal;font-weight:bold;font-stretch:normal;font-size:40px;line-height:1.25;font-family:'Bitstream Vera Serif';-inkscape-font-specification:'Bitstream Vera Serif Bold';letter-spacing:0px;word-spacing:0px;fill:#000000;fill-opacity:1;stroke:none">
    <path
       d="m 3.825891,-201.31183 v -1.57552 h 3.6458335 v -15.72917 l -4.0494793,2.39584 v -1.94011 l 4.8828127,-2.94271 h 4.1015631 v 18.21615 h 3.658854 v 1.57552 z"
       style="font-size:26.66666794px;line-height:0;letter-spacing:-6.32999992px"/>
    <path
       d="m 21.662559,-202.45766 q 1.5625,0 2.135417,-1.41927 0.585938,-1.41927 0.585938,-7.13542 0,-5.67708 -0.585938,-7.1224 -0.572917,-1.44531 -2.135417,-1.44531 -1.5625,0 -2.148437,1.41927 -0.572917,1.41927 -0.572917,7.14844 0,5.71615 0.572917,7.13542 0.585937,1.41927 2.148437,1.41927 z m 0,1.52344 q -3.893229,0 -5.963542,-2.59115 -2.070312,-2.60417 -2.070312,-7.48698 0,-4.88281 2.070312,-7.48698 2.070313,-2.60417 5.963542,-2.60417 3.880209,0 5.950521,2.60417 2.070313,2.60417 2.070313,7.48698 0,4.88281 -2.070313,7.48698 -2.070312,2.59115 -5.950521,2.59115 z"
       style="font-size:26.66666794px;line-height:0;letter-spacing:-6.32999992px"/>
  </g>
 	<g id="base"> 
     <path style="fill:#FFFFFF;stroke:#000000;stroke-width:2.5" d="M 0,0C0,3.78 3.09,6.87 6.87,6.87L159.715,6.87C163.485,6.87 166.575,3.78 166.575,0L166.575,-228.4C166.575,-232.18 163.485,-235.27 159.715,-235.27L6.87,-235.27C3.09,-235.27 0,-232.18 0,-228.4L0,0 z"/>
     </g>
  <g id="figure" > 
    <path d="M3.92-7.93c-1.67,0-2.55,1.78-3.01,3.56c-0.46,1.78-0.5,3.56-0.5,3.56L-0.44-0.8c0,0-0.16-7.13-3.5-7.13H3.92z"/> 
    <path d="M6.75-0.8C6.74,2.67,1.53,5.19,0,7.93C-1.53,5.18-6.74,2.66-6.75-0.8c0-1.64,1.51-2.97,3.38-2.97C-1.51-3.77,0-2.44,0-0.8c0-1.64,1.51-2.97,3.38-2.97S6.75-2.44,6.75-0.8z"/> 
 </g>
  </defs>
   <g x="0" y="0"> 
    <g> 
        <use xlink:href="#base" x="0" y="0"/>
        <use xlink:href="#n" x="0" y="0"/>
        <use xlink:href="#n" x="160" y="170" transform="rotate(180,163.575,-30.28)"/>
        <use xlink:href="#figure" x="13.65" y="-185.117" transform="rotate(180,13.65,-185.117)"/> 
        <use xlink:href="#figure" x="153.925" y="-44.28"/> 

        <use xlink:href="#figure" x="20" y="-82.7125" transform="scale(2.4) rotate(180,20,-82.7125)"/> 
        <use xlink:href="#figure" x="20" y="-60.1474" transform="scale(2.4) rotate(180,20,-60.1474)"/>
        <use xlink:href="#figure" x="20" y="-37.1641" transform="scale(2.4)"/>
        <use xlink:href="#figure" x="20" y="-14.599" transform="scale(2.4)"/>
        <use xlink:href="#figure" x="50" y="-82.7125" transform="scale(2.4) rotate(180,50,-82.7125)"/>
        <use xlink:href="#figure" x="50" y="-60.1474" transform="scale(2.4) rotate(180,50,-60.1474)"/> 
        <use xlink:href="#figure" x="50" y="-37.1641" transform="scale(2.4)"/> 
        <use xlink:href="#figure" x="50" y="-14.599" transform="scale(2.4)"/> 
        <use xlink:href="#figure" x="35" y="-71.4299" transform="scale(2.4) rotate(180,35,-71.4299)"/>
         <use xlink:href="#figure" x="35" y="-25.8815" transform="scale(2.4)"/>
    </g>  
 </g>
 </svg> 
